<?xml version="1.0" encoding="UTF-8"?> <svg xmlns="http://www.w3.org/2000/svg" width="368" height="112" viewBox="0 0 368 112" fill="none"><path d="M2.23001 110.42V2.66998H23.17V110.42H2.23001Z" fill="url(#paint0_linear)"></path><path d="M45.63 110.42V2.66998H93.28C98.24 2.66998 102.81 3.70998 107.01 5.77998C111.21 7.84998 114.83 10.59 117.86 13.97C120.9 17.36 123.27 21.2 124.99 25.5C126.71 29.8 127.57 34.13 127.57 38.48C127.57 45.46 125.82 51.81 122.33 57.52C118.84 63.24 114.11 67.36 108.14 69.89L132.72 110.41H109.2L87.2 74.29H66.57V110.41H45.63V110.42ZM66.57 55.94H92.82C94.74 55.94 96.54 55.48 98.21 54.57C99.88 53.66 101.32 52.42 102.54 50.85C103.75 49.28 104.71 47.44 105.42 45.31C106.13 43.19 106.48 40.91 106.48 38.48C106.48 35.95 106.07 33.62 105.27 31.5C104.46 29.38 103.37 27.53 102.01 25.96C100.64 24.39 99.07 23.18 97.31 22.32C95.54 21.46 93.74 21.03 91.92 21.03H66.57V55.94Z" fill="url(#paint1_linear)"></path><path d="M146.55 110.42V2.66998H167.49V92.05H222.43V110.41H146.55V110.42Z" fill="url(#paint2_linear)"></path><path d="M235.17 110.42V2.66998H256.11V110.42H235.17Z" fill="url(#paint3_linear)"></path><path d="M365.82 2H343.21L327.96 24.88L338.8 40.46L365.82 2Z" fill="#008C80"></path><path d="M364.16 109.42L316.85 41.55L316.5 42.07L298.66 15.46L289.64 2H266.88L305.27 56.64L268.09 109.75H290.86L316.5 71.2L342 109.75H364.61L364.38 109.42H364.16Z" fill="#131415"></path><path d="M289.64 2L364.61 109.75H342L266.88 2" fill="#131415"></path><defs><linearGradient id="paint0_linear" x1="2.23051" y1="56.5435" x2="256.113" y2="56.5435" gradientUnits="userSpaceOnUse"><stop stop-color="#00B29E"></stop><stop offset="0.2069" stop-color="#00A997"></stop><stop offset="1" stop-color="#008D83"></stop></linearGradient><linearGradient id="paint1_linear" x1="2.23051" y1="56.5435" x2="256.113" y2="56.5435" gradientUnits="userSpaceOnUse"><stop stop-color="#00B29E"></stop><stop offset="0.2069" stop-color="#00A997"></stop><stop offset="1" stop-color="#008D83"></stop></linearGradient><linearGradient id="paint2_linear" x1="2.23054" y1="56.5435" x2="256.113" y2="56.5435" gradientUnits="userSpaceOnUse"><stop stop-color="#00B29E"></stop><stop offset="0.2069" stop-color="#00A997"></stop><stop offset="1" stop-color="#008D83"></stop></linearGradient><linearGradient id="paint3_linear" x1="2.23065" y1="56.5435" x2="256.113" y2="56.5435" gradientUnits="userSpaceOnUse"><stop stop-color="#00B29E"></stop><stop offset="0.2069" stop-color="#00A997"></stop><stop offset="1" stop-color="#008D83"></stop></linearGradient></defs></svg> 